<svg xmlns="http://www.w3.org/2000/svg" viewBox="0 0 24 24" width="24" height="24">
  <path fill="black" d="M11.979 0C5.678 0 .511 4.86.022 10.958l6.432 2.658a3.387 3.387 0 0 1 1.912-.588c.063 0 .125.002.187.006l2.861-4.142V8.845a4.532 4.532 0 0 1 4.53-4.531 4.532 4.532 0 0 1 4.531 4.531 4.532 4.532 0 0 1-4.531 4.531h-.106l-4.074 2.91c.002.043.003.088.003.133a3.404 3.404 0 0 1-3.4 3.4 3.407 3.407 0 0 1-3.367-2.935L.335 14.715A11.994 11.994 0 0 0 11.979 24c6.627 0 12-5.373 12-12s-5.372-12-12-12zM7.54 18.21l-1.473-.61a2.553 2.553 0 0 0 4.841-.762 2.55 2.55 0 0 0-2.549-2.552c-.403 0-.791.097-1.142.274l1.523.63a1.878 1.878 0 0 1-1.437 3.472l-.002-.001.239-.45zm8.404-5.455a3.025 3.025 0 0 0 3.02-3.022 3.024 3.024 0 0 0-3.02-3.02 3.025 3.025 0 0 0-3.022 3.02 3.025 3.025 0 0 0 3.022 3.022zm-.003-5.29a2.27 2.27 0 1 1 0 4.54 2.27 2.27 0 0 1 0-4.54z"/>
</svg>
